<?xml version="1.0" encoding="UTF-8" standalone="no"?>
<svg
   version="1.1"
   id="svg2"
   viewBox="0 0 64 64"
   inkscape:version="1.2.2 (b0a8486541, 2022-12-01)"
   sodipodi:docname="kdenlive.svg"
   width="64"
   height="64"
   xmlns:inkscape="http://www.inkscape.org/namespaces/inkscape"
   xmlns:sodipodi="http://sodipodi.sourceforge.net/DTD/sodipodi-0.dtd"
   xmlns:xlink="http://www.w3.org/1999/xlink"
   xmlns="http://www.w3.org/2000/svg"
   xmlns:svg="http://www.w3.org/2000/svg"
   xmlns:rdf="http://www.w3.org/1999/02/22-rdf-syntax-ns#"
   xmlns:cc="http://creativecommons.org/ns#"
   xmlns:dc="http://purl.org/dc/elements/1.1/">
  <sodipodi:namedview
     pagecolor="#c8c8c8"
     bordercolor="#666666"
     borderopacity="1"
     objecttolerance="10"
     gridtolerance="10"
     guidetolerance="10"
     inkscape:pageopacity="0"
     inkscape:pageshadow="2"
     inkscape:window-width="1920"
     inkscape:window-height="1000"
     id="namedview12"
     showgrid="true"
     inkscape:zoom="7.375"
     inkscape:cx="61.220339"
     inkscape:cy="39.254237"
     inkscape:window-x="0"
     inkscape:window-y="0"
     inkscape:window-maximized="1"
     inkscape:current-layer="svg2"
     inkscape:pagecheckerboard="0"
     inkscape:lockguides="false"
     inkscape:snap-bbox="true"
     inkscape:bbox-nodes="true"
     inkscape:showpageshadow="2"
     inkscape:deskcolor="#d1d1d1"
     showguides="true">
    <inkscape:grid
       type="xygrid"
       id="grid818"
       originx="0"
       originy="0"
       spacingy="1"
       spacingx="1"
       units="px" />
    <sodipodi:guide
       position="40.735044,23.967568"
       orientation="0,-1"
       id="guide3"
       inkscape:locked="false" />
    <sodipodi:guide
       position="49.28025,-6.144395"
       orientation="0,-1"
       id="guide4"
       inkscape:locked="false" />
  </sodipodi:namedview>
  <metadata
     id="metadata18">
    <rdf:RDF>
      <cc:Work
         rdf:about="">
        <dc:format>image/svg+xml</dc:format>
        <dc:type
           rdf:resource="http://purl.org/dc/dcmitype/StillImage" />
      </cc:Work>
    </rdf:RDF>
  </metadata>
  <defs
     id="defs3051">
    <linearGradient
       inkscape:collect="always"
       id="linearGradient10493">
      <stop
         style="stop-color:#7b3dbf;stop-opacity:1;"
         offset="0"
         id="stop10489" />
      <stop
         style="stop-color:#7800fc;stop-opacity:0;"
         offset="1"
         id="stop10491" />
    </linearGradient>
    <style
       type="text/css"
       id="current-color-scheme">
      .ColorScheme-Text {
        color:#f1fafd;
      }
      .ColorScheme-Background {
        color:#eff0f1;
      }
      .ColorScheme-Highlight {
        color:#3daee9;
      }
      .ColorScheme-ViewText {
        color:#31363b;
      }
      .ColorScheme-ActiveText {
      color:#1775e5;
      }
      .ColorScheme-ViewBackground {
        color:#fcfcfc;
      }
      .ColorScheme-ViewHover {
        color:#93cee9;
      }
      .ColorScheme-ViewFocus{
        color:#3daee9;
      }
      .ColorScheme-ButtonText {
        color:#31363b;
      }
      .ColorScheme-ButtonBackground {
        color:#eff0f1;
      }
      .ColorScheme-ButtonHover {
        color:#93cee9;
      }
      .ColorScheme-ButtonFocus{
        color:#3daee9;
      }
      .ColorScheme-PositiveText{
      color:#4bb532;
      }
      </style>
    <linearGradient
       id="linear5"
       gradientUnits="userSpaceOnUse"
       x1="-224.75459"
       y1="141.18961"
       x2="-198.7251"
       y2="147.3308"
       gradientTransform="matrix(0.469236,0.469236,-0.469236,0.469236,184.8518,60.9014)">
      <stop
         offset="0"
         style="stop-color:rgb(89.803922%,89.803922%,89.803922%);stop-opacity:1;"
         id="stop42" />
      <stop
         offset="1"
         style="stop-color:rgb(80.784314%,80.784314%,80.784314%);stop-opacity:1;"
         id="stop44" />
    </linearGradient>
    <linearGradient
       id="linear4"
       gradientUnits="userSpaceOnUse"
       x1="-142.98621"
       y1="223.0275"
       x2="-116.9567"
       y2="229.1687"
       gradientTransform="matrix(0.4692,-0.4692,-0.4692,-0.4692,184.9172,83.8652)">
      <stop
         offset="0"
         style="stop-color:rgb(66.27451%,66.27451%,66.27451%);stop-opacity:1;"
         id="stop22" />
      <stop
         offset="1"
         style="stop-color:rgb(54.901961%,54.901961%,54.901961%);stop-opacity:1;"
         id="stop24" />
    </linearGradient>
    <linearGradient
       id="linear6"
       gradientUnits="userSpaceOnUse"
       x1="-241.3418"
       y1="90.888603"
       x2="-216.6895"
       y2="96.704803"
       gradientTransform="matrix(0.6636,0,0,0.6636,199.666,-18.3138)">
      <stop
         offset="0"
         style="stop-color:rgb(89.803922%,89.803922%,89.803922%);stop-opacity:1;"
         id="stop59" />
      <stop
         offset="1"
         style="stop-color:rgb(80.784314%,80.784314%,80.784314%);stop-opacity:1;"
         id="stop61" />
    </linearGradient>
    <linearGradient
       inkscape:collect="always"
       id="linearGradient863">
      <stop
         style="stop-color:#000000;stop-opacity:1;"
         offset="0"
         id="stop859-3" />
      <stop
         style="stop-color:#000000;stop-opacity:0.90980392;"
         offset="0.56770003"
         id="stop867" />
      <stop
         style="stop-color:#000000;stop-opacity:0.77647059;"
         offset="0.67416817"
         id="stop903" />
      <stop
         style="stop-color:#000000;stop-opacity:0.63137255;"
         offset="0.77027273"
         id="stop905" />
      <stop
         style="stop-color:#000000;stop-opacity:0.55294118;"
         offset="0.81048203"
         id="stop911" />
      <stop
         style="stop-color:#000000;stop-opacity:0.30980392;"
         offset="0.89872938"
         id="stop909" />
      <stop
         style="stop-color:#000000;stop-opacity:0.01568627;"
         offset="0.98601139"
         id="stop871" />
      <stop
         style="stop-color:#000000;stop-opacity:0;"
         offset="1"
         id="stop861-6" />
    </linearGradient>
    <radialGradient
       inkscape:collect="always"
       xlink:href="#linearGradient863"
       id="radialGradient271"
       cx="595.25006"
       cy="180.83644"
       fx="595.25006"
       fy="180.83644"
       r="10.552633"
       gradientUnits="userSpaceOnUse"
       gradientTransform="matrix(0.80436674,0,0,0.80436674,711.86474,237.91794)" />
    <radialGradient
       inkscape:collect="always"
       xlink:href="#linearGradient863"
       id="radialGradient291"
       cx="595.25006"
       cy="180.83644"
       fx="595.25006"
       fy="180.83644"
       r="10.552633"
       gradientUnits="userSpaceOnUse"
       gradientTransform="matrix(0.80436674,0,0,0.80436674,711.86474,237.91794)" />
    <radialGradient
       inkscape:collect="always"
       xlink:href="#linearGradient863"
       id="radialGradient311"
       cx="595.25006"
       cy="180.83644"
       fx="595.25006"
       fy="180.83644"
       r="10.552633"
       gradientUnits="userSpaceOnUse"
       gradientTransform="matrix(0.80436674,0,0,0.80436674,711.86474,237.91794)" />
    <radialGradient
       inkscape:collect="always"
       xlink:href="#linearGradient863"
       id="radialGradient331"
       cx="595.25006"
       cy="180.83644"
       fx="595.25006"
       fy="180.83644"
       r="10.552633"
       gradientUnits="userSpaceOnUse"
       gradientTransform="matrix(0.80436674,0,0,0.80436674,711.86474,237.91794)" />
    <linearGradient
       inkscape:collect="always"
       xlink:href="#linearGradient10493"
       id="linearGradient10495"
       x1="222.32309"
       y1="108.6648"
       x2="14.76989"
       y2="17.044333"
       gradientUnits="userSpaceOnUse" />
  </defs>
  <path
     id="path24333"
     style="fill:currentColor;fill-opacity:1;stroke-width:11.2512;stroke-linejoin:round;stroke-opacity:0.543049;paint-order:fill markers stroke"
     d="m 6.2477297,22.760843 v 5.121615 4.903337 13.603938 5.123081 0.647529 c 0,5.554333 4.4706093,10.026423 10.0249293,10.026423 h 32.628348 c 5.554322,0 10.026426,-4.47209 10.026426,-10.026423 v -5.77061 -13.603938 -4.903337 c 0,-2.838028 -2.28503,-5.121615 -5.123099,-5.121615 H 48.901007 35.869921 16.272659 Z"
     class="ColorScheme-ActiveText" />
  <path
     id="rect1291"
     style="fill:currentColor;fill-opacity:1;stroke-width:11.2512;stroke-linejoin:round;stroke-opacity:0.543049;paint-order:fill markers stroke"
     d="M 13.948695,8.0636995 46.14395,2.7654555 c 5.480585,-0.90187 10.618837,2.784211 11.520729,8.2648135 L 58.22341,14.402173 6.2426297,22.956396 5.6838967,19.584515 C 4.7761537,14.104857 8.4680327,8.9656065 13.948621,8.0636845 Z"
     sodipodi:nodetypes="sssccsss"
     class="ColorScheme-ActiveText" />
  <path
     id="path10461"
     style="fill:url(#linearGradient10495);fill-opacity:1;stroke-width:11.2512;stroke-linejoin:round;stroke-opacity:0.543049;paint-order:fill markers stroke"
     class="ColorScheme-ActiveText"
     d="M 48.175781 2.6367188 C 47.509012 2.611535 46.829604 2.6528914 46.144531 2.765625 L 13.949219 8.0644531 C 8.4686359 8.9663742 4.7758517 14.104332 5.6835938 19.583984 L 6.2421875 22.957031 L 6.2480469 22.957031 L 6.2480469 27.882812 L 6.2480469 32.785156 L 6.2480469 46.390625 L 6.2480469 51.513672 L 6.2480469 52.160156 C 6.2480469 57.714484 10.719123 62.1875 16.273438 62.1875 L 48.900391 62.1875 C 54.454707 62.1875 58.927734 57.714484 58.927734 52.160156 L 58.927734 46.390625 L 58.927734 32.785156 L 58.927734 27.882812 C 58.927734 25.044787 56.642754 22.761719 53.804688 22.761719 L 48.900391 22.761719 L 35.869141 22.761719 L 16.273438 22.761719 L 7.4296875 22.761719 L 58.222656 14.402344 L 57.664062 11.029297 C 56.874908 6.2337745 52.843164 2.8130052 48.175781 2.6367188 z " />
  <path
     id="path11832"
     style="fill:#000424;fill-opacity:0.363163;stroke:none;stroke-width:0.750077px;stroke-linecap:butt;stroke-linejoin:miter;stroke-opacity:1"
     d="M 46.143576,2.7658605 33.447247,4.8544125 32.802931,18.585345 45.509306,16.495151 46.152348,2.7644505 c 0,0 -0.0076,0.0015 -0.0091,0.0015 z m -25.455889,4.190373 -6.739367,1.107608 c -0.342556,0.0564 -0.677094,0.129149 -1.004953,0.217687 -5.99e-4,1.27e-4 0,-5.3e-5 0,0 -0.327408,0.08846 -0.647241,0.192449 -0.958598,0.311046 -0.311806,0.118766 -0.615438,0.252477 -0.909919,0.399603 -0.287956,0.143852 -0.567508,0.301711 -0.83746,0.470861 -0.01277,0.0083 -0.02623,0.01599 -0.03975,0.02423 -0.2605023,0.164927 -0.5112533,0.341525 -0.7537533,0.5284525 -0.01429,0.01164 -0.02925,0.02377 -0.04425,0.03542 -0.238602,0.186122 -0.467748,0.382936 -0.687596,0.588884 -0.01648,0.01557 -0.03451,0.03103 -0.05025,0.04673 -0.214897,0.204231 -0.419894,0.417575 -0.615364,0.639433 -0.01723,0.02011 -0.03526,0.04043 -0.05251,0.06053 -0.176194,0.203112 -0.342035,0.414748 -0.501051,0.631138 -0.04576,0.06293 -0.09196,0.126061 -0.136739,0.19008 -0.143938,0.205841 -0.280454,0.416165 -0.408717,0.632383 -0.03001,0.05018 -0.06001,0.100334 -0.08821,0.150954 -0.123612,0.2169 -0.2383,0.439096 -0.345558,0.665109 -0.03451,0.0744 -0.06901,0.149347 -0.102835,0.224621 -0.100587,0.226293 -0.193599,0.457008 -0.277453,0.691084 -0.02249,0.06443 -0.0465,0.128647 -0.0675,0.193667 -0.08506,0.254859 -0.160289,0.513473 -0.225018,0.776015 -0.01126,0.03947 -0.02101,0.07932 -0.02925,0.119068 -0.06,0.255656 -0.106509,0.514785 -0.146266,0.77648 -0.01576,0.08099 -0.02476,0.162848 -0.03375,0.244658 -0.03451,0.2632 -0.06076,0.528429 -0.06976,0.796762 -0.0083,0.04696 0,0.09463 0,0.141856 -0.01202,0.289162 0,0.580559 0.01202,0.873816 -6.75e-4,0.0423 0.0075,0.08424 0.0075,0.126511 0.02173,0.319365 0.057,0.640724 0.110262,0.963174 l 0.558639,3.371846 13.8066663,-2.271435 z" />
  <g
     id="g35528"
     style="opacity:0.35047"
     transform="matrix(0.75007698,0,0,0.75007698,-969.52307,-371.82289)">
    <path
       id="path35249"
       style="color:#000000;fill:#00053b;fill-opacity:0.0421674;stroke:none;stroke-width:7;stroke-linejoin:round;stroke-opacity:1;-inkscape-stroke:none;paint-order:fill markers stroke"
       d="m 1328.7529,538.90649 a 3.50035,3.50035 0 0 0 -1.75,0.46875 3.50035,3.50035 0 0 0 -1.75,3.03125 v 21.53515 a 3.50035,3.50035 0 0 0 5.25,3.03125 l 18.6504,-10.76758 a 3.50035,3.50035 0 0 0 0,-6.0625 l -18.6504,-10.76757 a 3.50035,3.50035 0 0 0 -1.75,-0.46875 z" />
    <path
       id="path35413"
       style="color:#000000;fill:#00053b;fill-opacity:0.0421674;stroke:none;stroke-width:7;stroke-linejoin:round;stroke-opacity:1;-inkscape-stroke:none;paint-order:fill markers stroke"
       d="m 1329.4531,539.68531 a 3.50035,3.50035 0 0 0 -1.75,0.46875 3.50035,3.50035 0 0 0 -1.75,3.03125 v 21.53515 a 3.50035,3.50035 0 0 0 5.25,3.03125 l 18.6504,-10.76758 a 3.50035,3.50035 0 0 0 0,-6.0625 l -18.6504,-10.76757 a 3.50035,3.50035 0 0 0 -1.75,-0.46875 z" />
    <path
       id="path35415"
       style="color:#000000;fill:#00053b;fill-opacity:0.0421674;stroke:none;stroke-width:7;stroke-linejoin:round;stroke-opacity:1;-inkscape-stroke:none;paint-order:fill markers stroke"
       d="m 1330.3182,538.59808 a 3.50035,3.50035 0 0 0 -1.75,0.46875 3.50035,3.50035 0 0 0 -1.75,3.03125 v 21.53515 a 3.50035,3.50035 0 0 0 5.25,3.03125 l 18.6504,-10.76758 a 3.50035,3.50035 0 0 0 0,-6.0625 l -18.6504,-10.76757 a 3.50035,3.50035 0 0 0 -1.75,-0.46875 z" />
    <path
       id="path35417"
       style="color:#000000;fill:#00053b;fill-opacity:0.0421674;stroke:none;stroke-width:7;stroke-linejoin:round;stroke-opacity:1;-inkscape-stroke:none;paint-order:fill markers stroke"
       d="m 1327.6842,539.2134 a 3.50035,3.50035 0 0 0 -1.75,0.46875 3.50035,3.50035 0 0 0 -1.75,3.03125 v 21.53515 a 3.50035,3.50035 0 0 0 5.25,3.03125 l 18.6504,-10.76758 a 3.50035,3.50035 0 0 0 0,-6.0625 l -18.6504,-10.76757 a 3.50035,3.50035 0 0 0 -1.75,-0.46875 z" />
    <path
       id="path35419"
       style="color:#000000;fill:#00053b;fill-opacity:0.0421674;stroke:none;stroke-width:7;stroke-linejoin:round;stroke-opacity:1;-inkscape-stroke:none;paint-order:fill markers stroke"
       d="m 1328.1269,537.78529 a 3.50035,3.50035 0 0 0 -1.75,0.46875 3.50035,3.50035 0 0 0 -1.75,3.03125 v 21.53515 a 3.50035,3.50035 0 0 0 5.25,3.03125 l 18.6504,-10.76758 a 3.50035,3.50035 0 0 0 0,-6.0625 l -18.6504,-10.76757 a 3.50035,3.50035 0 0 0 -1.75,-0.46875 z" />
    <path
       id="path35421"
       style="color:#000000;fill:#00053b;fill-opacity:0.0421674;stroke:none;stroke-width:7.22734;stroke-linejoin:round;stroke-opacity:1;-inkscape-stroke:none;paint-order:fill markers stroke"
       d="m 1329.5954,539.20073 a 3.6140339,3.6140339 0 0 0 -1.8069,0.48398 3.6140339,3.6140339 0 0 0 -1.8068,3.12969 v 22.23457 a 3.6140339,3.6140339 0 0 0 5.4205,3.1297 l 19.2561,-11.11729 a 3.6140339,3.6140339 0 0 0 0,-6.2594 l -19.2561,-11.11727 a 3.6140339,3.6140339 0 0 0 -1.8068,-0.48398 z" />
    <path
       id="path35423"
       style="color:#000000;fill:#00053b;fill-opacity:0.0421674;stroke:none;stroke-width:7.67551;stroke-linejoin:round;stroke-opacity:1;-inkscape-stroke:none;paint-order:fill markers stroke"
       d="m 1327.9502,539.20073 a 3.9703352,3.7103486 0 0 0 -1.985,0.49688 3.9703352,3.7103486 0 0 0 -1.985,3.21309 v 22.82713 a 3.9703352,3.7103486 0 0 0 5.955,3.2131 l 21.1544,-11.41356 a 3.9703352,3.7103486 0 0 0 0,-6.42622 l -21.1544,-11.41354 a 3.9703352,3.7103486 0 0 0 -1.985,-0.49688 z" />
  </g>
  <g
     id="g5279"
     inkscape:transform-center-x="-2.0975658"
     inkscape:transform-center-y="0.024908194"
     transform="translate(18.782871,1.9269422)"
     style="opacity:0.401566">
    <path
       id="path5277"
       style="fill:currentColor;stroke-width:6;stroke-linecap:round;stroke-linejoin:round;-inkscape-stroke:none"
       d="m 8.6253322,30.444151 a 3.0003,3.0003 0 0 0 -2.9824218,3.017578 l 0.085937,14.681641 a 3.0003,3.0003 0 0 0 4.5156256,2.572266 L 22.916348,43.29962 a 3.0003,3.0003 0 0 0 -0.03125,-5.195312 L 10.127285,30.83673 A 3.0003,3.0003 0 0 0 8.6253322,30.444151 Z"
       class="ColorScheme-Contrast" />
  </g>
  <g
     id="path3671"
     inkscape:transform-center-x="-2.0975658"
     inkscape:transform-center-y="0.024908194"
     transform="translate(18.782871,1.9269422)"
     style="opacity:0.884867">
    <path
       id="path3727"
       style="fill:currentColor;stroke-width:6;stroke-linecap:round;stroke-linejoin:round;-inkscape-stroke:none"
       d="m 8.6253322,30.444151 a 3.0003,3.0003 0 0 0 -2.9824218,3.017578 l 0.085937,14.681641 a 3.0003,3.0003 0 0 0 4.5156256,2.572266 L 22.916348,43.29962 a 3.0003,3.0003 0 0 0 -0.03125,-5.195312 L 10.127285,30.83673 A 3.0003,3.0003 0 0 0 8.6253322,30.444151 Z"
       class="ColorScheme-Text" />
  </g>
  <path
     id="path7505"
     style="opacity:0.0457056;fill:currentColor;stroke-width:6;stroke-linecap:round;stroke-linejoin:round;-inkscape-stroke:none"
     d="m 27.408231,32.371097 a 3.0003,3.0003 0 0 0 -2.982456,3.017574 l 0.08596,14.68164 a 3.0003,3.0003 0 0 0 4.515613,2.572269 l 12.671876,-7.416019 a 3.0003,3.0003 0 0 0 -0.0315,-5.195311 L 28.90996,32.763672 a 3.0003,3.0003 0 0 0 -1.501954,-0.392575 z"
     class="ColorScheme-Highlight" />
</svg>
